<svg xmlns="http://www.w3.org/2000/svg" width="122.326" height="38.556" viewBox="0 0 122.326 38.556">
  <path id="Path_77" data-name="Path 77" d="M14.572,0C20.08,4.545,25.561,9.091,31.123,13.583a3.469,3.469,0,0,0,2.086.588q19.251.04,38.476-.027c.187,0,.374-.16.989-.428-2.406-1.979-4.652-3.824-7.219-5.909,2.032-2.567,3.93-4.947,5.989-7.54a25.087,25.087,0,0,1,2.219,1.39c4.358,3.476,8.743,6.872,12.968,10.481a8.587,8.587,0,0,0,6.123,2.112c8.663-.107,17.326-.053,25.989-.027,1.15,0,2.273.107,3.583.16v10H118.5c-18.289,0-36.578.027-54.84-.053a7.967,7.967,0,0,0-5.508,1.952c-4.92,4.091-9.947,8.048-15.241,12.273-2.086-2.594-4.064-5.053-6.23-7.727,2.487-2.059,4.759-3.9,7.032-5.775a5.807,5.807,0,0,0-.187-.642H0c0-3.449,0-6.5,0-9.973H14.545l.321-.8c-2.193-1.845-4.385-3.717-6.845-5.8C10.027,5.187,11.979,2.594,13.93,0Z" transform="translate(0 0)" fill="#2e2e2e"/>
</svg>
