<svg id="Group_38" data-name="Group 38" xmlns="http://www.w3.org/2000/svg" width="289.965" height="125.232" viewBox="0 0 289.965 125.232">
  <path id="Path_81" data-name="Path 81" d="M0,23.756c2.847-.019,5.694-.009,8.54-.056.684-.009.89.44,1.152.88L20.115,41.633a20,20,0,0,0,1.892,2.716V23.812h6.8V54.294H26.858c-1.91,0-3.821-.037-5.731.019a1.677,1.677,0,0,1-1.686-.974Q13.583,43.7,7.66,34.085a3.47,3.47,0,0,0-.871-1.049V54.247c-2.332.028-4.561.047-6.789.075Z" transform="translate(0 -1.487)" fill="#7c7c7c"/>
  <path id="Path_82" data-name="Path 82" d="M51.347,54.99C46.8,54.952,43.031,54,39.875,51.375c-4.439-3.69-5.89-8.6-5.45-14.169a14.979,14.979,0,0,1,4.57-9.973,15.838,15.838,0,0,1,9.458-4.223,18.274,18.274,0,0,1,10.292,1.564c5.113,2.482,7.782,6.677,8.437,12.268A17.165,17.165,0,0,1,66.4,44.7c-2.088,5.853-6.405,9.027-12.417,10.039C52.939,54.9,51.89,54.933,51.347,54.99Zm-9.88-16.1c-.019,5.179,2.809,8.812,7.707,9.627,4.383.721,8.437-1.171,10.207-5.3a10.98,10.98,0,0,0,.787-4.6c-.1-7.183-6.284-10.863-12.577-8.924C43.743,30.876,41.486,34.369,41.467,38.892Z" transform="translate(-2.183 -1.434)" fill="#7c7c7c"/>
  <path id="Path_83" data-name="Path 83" d="M65.238,84.676v12.09H58.43V66.312a6.916,6.916,0,0,1,.862-.094c4.008,0,8.016-.084,12.024.037a17.7,17.7,0,0,1,4.832.852,7.685,7.685,0,0,1,5.609,7.445,10.558,10.558,0,0,1-.59,4.635A7.24,7.24,0,0,1,76.532,83.6c-.318.1-.637.215-.946.328-.028.009-.047.056-.178.215,2.472,4.12,4.973,8.3,7.567,12.623-.552.028-.908.066-1.264.066-1.91.009-3.821-.047-5.731.019a1.606,1.606,0,0,1-1.732-1.021c-1.695-3.371-3.5-6.7-5.207-10.067a1.6,1.6,0,0,0-1.8-1.105A15.407,15.407,0,0,1,65.238,84.676Zm.084-5.759c2.351-.112,4.589-.112,6.8-.365a2.766,2.766,0,0,0,2.585-2.894,3.028,3.028,0,0,0-2.425-3.306c-2.266-.571-4.579-.225-6.958-.309Z" transform="translate(-3.713 -4.187)" fill="#7c7c7c"/>
  <path id="Path_84" data-name="Path 84" d="M257.271,42.11V53.057c0,1.217-.009,1.227-1.264,1.227-1.536.009-3.072-.028-4.607.009-.787.019-1.049-.262-1.039-1.039.037-2.4.009-4.795.009-7.183V23.793c.459-.037.777-.084,1.1-.084,3.933,0,7.866-.075,11.79.056a18.031,18.031,0,0,1,4.935.871,7.719,7.719,0,0,1,5.534,7.613,10.862,10.862,0,0,1-.571,4.308,7.613,7.613,0,0,1-5.9,4.841c2.557,4.261,5.066,8.437,7.67,12.773-.478.047-.8.112-1.1.112-1.985.009-3.971-.028-5.947.019a1.476,1.476,0,0,1-1.564-.946C264.566,49.929,262.74,46.53,261,43.1a1.487,1.487,0,0,0-1.629-1.011A19.024,19.024,0,0,1,257.271,42.11Zm.047-5.7c2.322-.112,4.523-.131,6.705-.365a2.885,2.885,0,0,0,2.669-2.959,2.916,2.916,0,0,0-2.36-3.221,24.406,24.406,0,0,0-3.886-.393c-1.03-.056-2.06-.009-3.128-.009Z" transform="translate(-15.909 -1.486)" fill="#7c7c7c"/>
  <path id="Path_85" data-name="Path 85" d="M233.094,84.676V96.737H226.38V66.312a7.642,7.642,0,0,1,.824-.094c4.008,0,8.016-.084,12.015.047a17.708,17.708,0,0,1,4.935.89,7.656,7.656,0,0,1,5.506,7.3,13.025,13.025,0,0,1-.393,3.989,7.112,7.112,0,0,1-5.057,5.244c-.14.047-.29.075-.431.122s-.272.094-.581.206c2.557,4.252,5.076,8.456,7.707,12.829-2.734,0-5.235.028-7.735-.037-.309-.009-.721-.468-.908-.805-1.8-3.362-3.6-6.733-5.3-10.142A1.7,1.7,0,0,0,235,84.685C234.434,84.741,233.834,84.676,233.094,84.676Zm.075-12.745V78.9c2.3-.1,4.542-.084,6.752-.337a2.714,2.714,0,0,0,2.641-2.931c.047-1.807-.712-3.025-2.519-3.278C237.8,72.043,235.52,72.062,233.169,71.931Z" transform="translate(-14.385 -4.187)" fill="#7c7c7c"/>
  <path id="Path_86" data-name="Path 86" d="M112.633,41.18V54.187H105.9V23.809h6.686V34.934h12.932V23.79h6.78V54.206h-6.733V41.18Z" transform="translate(-6.729 -1.493)" fill="#7c7c7c"/>
  <path id="Path_87" data-name="Path 87" d="M286.29,35.894q3.217-3.441,6.433-6.874c1.461-1.555,2.9-3.137,4.373-4.673a1.7,1.7,0,0,1,.993-.6c2.725-.047,5.46-.028,8.325.178-4.43,4.635-8.85,9.262-13.354,13.972,4.86,5.394,9.683,10.751,14.646,16.248a8.54,8.54,0,0,1-1.011.131c-2.51.009-5.019-.019-7.529.019a1.786,1.786,0,0,1-1.517-.74q-5.38-6.335-10.807-12.633c-.187-.225-.328-.478-.5-.721-.1.056-.215.112-.318.159V54.183H279.22V23.814h6.714V35.838C286.075,35.857,286.178,35.876,286.29,35.894Z" transform="translate(-17.742 -1.489)" fill="#7c7c7c"/>
  <path id="Path_88" data-name="Path 88" d="M105.541,84.5H95.062v5.993h13.831v6.274H88.16V66.3h20.733v6.209H95.09v5.563h10.441C105.541,80.244,105.541,82.276,105.541,84.5Z" transform="translate(-5.602 -4.194)" fill="#7c7c7c"/>
  <path id="Path_89" data-name="Path 89" d="M135.514,66.31v6.209H121.589v5.563H132.1V84.4H121.6v6.068h13.9v6.312H114.79V66.31Z" transform="translate(-7.294 -4.195)" fill="#7c7c7c"/>
  <path id="Path_90" data-name="Path 90" d="M244.723,54.181a6.8,6.8,0,0,1-.843.1c-1.948.009-3.9-.019-5.844.019a1.115,1.115,0,0,1-1.245-.833c-.6-1.611-1.311-3.175-1.91-4.785a1.173,1.173,0,0,0-1.32-.871c-3.3.037-6.593.028-9.88,0a1.1,1.1,0,0,0-1.236.833c-.59,1.611-1.227,3.212-1.892,4.795-.14.328-.487.805-.749.805-2.276.066-4.551.037-7.014.037.178-.487.281-.833.412-1.152q6.124-14.2,12.249-28.421a1.4,1.4,0,0,1,1.592-1.011,28.823,28.823,0,0,0,3.484,0,1.337,1.337,0,0,1,1.489,1c2.669,6.218,5.385,12.417,8.082,18.617l4.326,9.973C244.527,53.554,244.6,53.825,244.723,54.181ZM232.137,41.9c-1.2-3.034-2.35-5.947-3.605-9.1-1.245,3.184-2.379,6.1-3.549,9.1Z" transform="translate(-13.521 -1.487)" fill="#7c7c7c"/>
  <path id="Path_91" data-name="Path 91" d="M89.9,47.86H78.152c-.712,1.8-1.461,3.587-2.107,5.413a1.37,1.37,0,0,1-1.573,1.039c-1.723-.056-3.446-.019-5.169-.019-.328,0-.656-.037-1.142-.066.178-.478.3-.852.459-1.208,4.046-9.374,8.11-18.739,12.118-28.122.384-.89.824-1.283,1.807-1.2a17.28,17.28,0,0,0,3.034,0,1.639,1.639,0,0,1,1.91,1.217c3.118,7.286,6.293,14.553,9.458,21.819,1.058,2.425,2.107,4.86,3.221,7.407a6.161,6.161,0,0,1-.936.14c-1.91.009-3.821-.028-5.731.028a1.259,1.259,0,0,1-1.377-.983C91.422,51.5,90.654,49.714,89.9,47.86Zm-9.524-5.984H87.5c-1.189-3.006-2.332-5.89-3.484-8.775-.075.009-.159.009-.234.019C82.656,36.023,81.523,38.926,80.371,41.876Z" transform="translate(-4.331 -1.486)" fill="#7c7c7c"/>
  <path id="Path_92" data-name="Path 92" d="M220.592,96.829c-2.491,0-4.851.028-7.2-.037-.272-.009-.646-.431-.787-.749-.693-1.573-1.348-3.165-1.948-4.767a1.186,1.186,0,0,0-1.311-.9c-3.3.037-6.583.037-9.88,0a1.187,1.187,0,0,0-1.311.908c-.571,1.583-1.236,3.128-1.817,4.7a1.075,1.075,0,0,1-1.2.862c-2.163-.047-4.326-.019-6.649-.019.2-.506.328-.88.487-1.245q6.11-14.145,12.2-28.309c.346-.815.749-1.171,1.648-1.086a16.319,16.319,0,0,0,3.025,0,1.764,1.764,0,0,1,2.079,1.311c2.828,6.639,5.722,13.242,8.6,19.853q1.77,4.06,3.53,8.119C220.227,95.874,220.376,96.286,220.592,96.829Zm-12.67-12.314c-1.208-3.062-2.379-6-3.633-9.177-1.246,3.2-2.388,6.134-3.577,9.177Z" transform="translate(-11.977 -4.186)" fill="#7c7c7c"/>
  <path id="Path_93" data-name="Path 93" d="M262.177,84.439v6.04H275.99v6.284H255.36V66.3h20.658v6.209H262.187V78.09h10.432v6.349Z" transform="translate(-16.226 -4.194)" fill="#7c7c7c"/>
  <path id="Path_94" data-name="Path 94" d="M136.411,126.642c-.534,1.695-1.077,3.456-1.676,5.366-.983-.169-2.032-.346-3.175-.543a3.693,3.693,0,0,1,.056-.88c.684-2.051,1.367-4.1,2.107-6.124a1.589,1.589,0,0,0,.037-1.367,8.683,8.683,0,0,1,.534-8.372,14.459,14.459,0,0,1,8.278-6.518,23.591,23.591,0,0,1,26,7.539,30.552,30.552,0,0,1,1.957,2.987,9.347,9.347,0,0,1-.946.318,30.062,30.062,0,0,0-9.861,4.158c-2.21,1.33-4.411,2.678-6.658,3.942a18.381,18.381,0,0,1-7.051,2.425,11.9,11.9,0,0,1-8.157-2.154c-.375-.253-.74-.515-1.105-.768C136.729,126.633,136.682,126.642,136.411,126.642Zm25-12.652c.066.028.122.056.187.084-.066-.019-.131-.047-.2-.066a9.849,9.849,0,0,0-.871-.674,19.175,19.175,0,0,0-8.316-2.828,18.148,18.148,0,0,0-11.247,2.285,9.06,9.06,0,0,0-4.13,4.72,17.779,17.779,0,0,0-.5,2.528c1.489-1.274,2.66-2.435,4-3.371,5.225-3.652,11.078-4.448,17.25-3.474C158.876,113.4,160.141,113.728,161.414,113.991Zm-23.074,9.252c2.463,2.463,5.347,3.418,8.391,2.641a20.435,20.435,0,0,0,4.673-1.826c3.446-1.882,6.8-3.933,10.179-5.918.037-.019.028-.131.047-.243a19.619,19.619,0,0,0-7.389-1.377c.346.272.7.543,1.105.852-.759.946-1.433,1.779-2.154,2.688-.347-.253-.656-.468-.936-.693-.908-.721-1.8-1.47-2.716-2.173-.253-.2-.618-.468-.862-.412-1.1.262-2.191.637-3.474,1.03,1.629,1.358,3.053,2.547,4.57,3.811-.749.927-1.442,1.779-2.173,2.7-1.957-1.555-3.811-3.034-5.787-4.607C140.606,120.93,139.492,122.063,138.34,123.243Z" transform="translate(-8.36 -6.776)" fill="#7c7c7c"/>
  <path id="Path_95" data-name="Path 95" d="M199.966,42.41c-.028.534-.056.936-.056,1.339q0,4.72-.009,9.439c0,1.049-.037,1.086-1.058,1.1-1.611.009-3.221-.028-4.832.019-.8.019-1.039-.281-1.03-1.049.028-3.109.009-6.218.009-9.327V23.784c.478-.028.805-.075,1.133-.075,3.821,0,7.642-.037,11.462.037a16.928,16.928,0,0,1,3.989.553c4.561,1.208,6.593,4.429,6.424,9.13a11.756,11.756,0,0,1-.459,2.978,7.583,7.583,0,0,1-6.583,5.516c-2.388.365-4.841.337-7.267.468C201.155,42.439,200.6,42.41,199.966,42.41Zm.009-5.759c2.145-.112,4.233-.075,6.284-.365a2.959,2.959,0,0,0,2.641-3.118,2.985,2.985,0,0,0-2.454-3.268,24.3,24.3,0,0,0-3.877-.412c-.843-.056-1.695-.009-2.585-.009C199.975,31.9,199.975,34.16,199.975,36.651Z" transform="translate(-12.262 -1.487)" fill="#7c7c7c"/>
  <path id="Path_96" data-name="Path 96" d="M149.04,51.11c1.676-1.845,3.231-3.549,5.029-5.534a5.182,5.182,0,0,0,.74,1.1,7.01,7.01,0,0,0,7.4,1.508,2.789,2.789,0,0,0,2.1-2.379,2.59,2.59,0,0,0-1.648-2.791c-1.423-.646-2.9-1.18-4.364-1.742-1.152-.44-2.332-.8-3.465-1.292-5.441-2.4-5.6-7.932-3.633-11.734a8.868,8.868,0,0,1,4.579-4.139,15.291,15.291,0,0,1,12.727.215,23.9,23.9,0,0,1,2.725,1.714c-1.648,1.807-3.156,3.456-4.692,5.132a6.9,6.9,0,0,0-6.274-1.807,5.582,5.582,0,0,0-1.761.674,2.51,2.51,0,0,0-.047,4.42,12.726,12.726,0,0,0,2.435,1.114c1.2.431,2.444.7,3.633,1.152a18.706,18.706,0,0,1,3.334,1.573,6.859,6.859,0,0,1,3.259,5.357c.618,6.565-3.53,10.039-8.175,10.947a15.77,15.77,0,0,1-11.49-1.7A28.236,28.236,0,0,1,149.04,51.11Z" transform="translate(-9.47 -1.431)" fill="#7c7c7c"/>
  <path id="Path_97" data-name="Path 97" d="M180.12,87.917c1.995,1.489,3.811,2.847,5.7,4.261a10.893,10.893,0,0,1-2.95,2.978,13.854,13.854,0,0,1-7.595,2.416,16.849,16.849,0,0,1-11.706-3.727,14.917,14.917,0,0,1-5.216-9.758,17.535,17.535,0,0,1,.777-8.522c1.985-5.516,6.031-8.681,11.7-9.842a16.3,16.3,0,0,1,9.383.646,10.525,10.525,0,0,1,4.87,3.577q-2.627,2.149-5.1,4.167a21.826,21.826,0,0,0-2.285-1.6,8.537,8.537,0,0,0-9.8,1.845,11.149,11.149,0,0,0-.019,14.234c3.165,3.493,9.14,3.587,11.94-.206C179.895,88.273,179.97,88.142,180.12,87.917Z" transform="translate(-10.05 -4.132)" fill="#7c7c7c"/>
  <path id="Path_98" data-name="Path 98" d="M28.27,72.332V66.32h24.1V72.3h-8.55V96.783h-6.9V72.332Z" transform="translate(-1.796 -4.195)" fill="#7c7c7c"/>
  <path id="Path_99" data-name="Path 99" d="M137.38,35.2c.159-.562.234-.88.346-1.189,1.161-3.109,2.35-6.209,3.474-9.327a1.263,1.263,0,0,1,1.461-.983c1.864.056,3.718.019,5.694.019-.14.459-.215.777-.328,1.077-1.171,3.146-2.369,6.284-3.512,9.43a1.233,1.233,0,0,1-1.358.993C141.294,35.162,139.431,35.2,137.38,35.2Z" transform="translate(-8.73 -1.487)" fill="#7c7c7c"/>
  <path id="Path_100" data-name="Path 100" d="M16.085,117a1.492,1.492,0,0,1,.309-.094c2.041-.178,2.041-.178,2.528,1.8a23.1,23.1,0,0,0,1.021,3.381c.262-1.105.543-2.2.787-3.306.468-2.041.459-2.041,2.547-1.882a2.482,2.482,0,0,1,.393.112v8.325H22.163v-5.188a1.731,1.731,0,0,1-.215-.037c-.478,1.732-.946,3.465-1.414,5.169-1.414.262-1.423.262-1.751-1.011-.309-1.189-.618-2.388-.936-3.577-.019-.056-.094-.094-.243-.253v4.916H16.179C15.823,124.659,15.739,118.244,16.085,117Z" transform="translate(-1.008 -7.405)" fill="#7c7c7c"/>
  <path id="Path_101" data-name="Path 101" d="M200.515,120.415V125.4H198.97v-8.26h2.444c.4,1.592.833,3.278,1.255,4.954.066.019.14.028.206.047.1-.393.225-.777.318-1.18q.239-.983.449-1.967c.5-2.229.515-2.248,3.015-1.845v8.269h-1.592v-5.029c-.075-.009-.15-.028-.225-.037-.384,1.442-.777,2.884-1.152,4.326-.122.478-.272.805-.871.805a.86.86,0,0,1-1-.777c-.328-1.452-.74-2.875-1.114-4.317A.6.6,0,0,1,200.515,120.415Z" transform="translate(-12.643 -7.412)" fill="#7c7c7c"/>
  <path id="Path_102" data-name="Path 102" d="M216.805,117.039v8.372h-1.676v-4.991c-.056-.009-.122-.009-.178-.019-.365,1.358-.749,2.706-1.1,4.074-.14.562-.215,1.058-1.021,1.039-.749-.019-.805-.478-.936-1a28.954,28.954,0,0,0-1.292-4.139v5.057H209.07v-8.372a11.753,11.753,0,0,1,1.995.037,1.166,1.166,0,0,1,.656.73c.356,1.292.646,2.6.955,3.914.037.169.122.328.272.74.375-1.592.759-2.94.983-4.308.15-.88.506-1.245,1.4-1.133C215.756,117.076,216.206,117.039,216.805,117.039Z" transform="translate(-13.285 -7.417)" fill="#7c7c7c"/>
  <path id="Path_103" data-name="Path 103" d="M222.819,117.152c.234-.037.375-.084.515-.094,1.48-.084,1.48-.084,2,1.3.478,1.255.955,2.51,1.573,3.755v-4.973h1.583v8.278c-.412.019-.843.028-1.264.066a.878.878,0,0,1-.983-.693,42.624,42.624,0,0,0-1.854-4.345v4.973H222.81C222.819,122.677,222.819,119.961,222.819,117.152Z" transform="translate(-14.158 -7.418)" fill="#7c7c7c"/>
  <path id="Path_104" data-name="Path 104" d="M109.52,117.152c.225-.037.365-.084.515-.094,1.47-.084,1.47-.084,2,1.3.478,1.255.965,2.51,1.564,3.746v-4.963h1.629v8.241c-.328.037-.609.056-.9.1-.852.14-1.274-.243-1.536-1.039a32.725,32.725,0,0,0-1.7-4.036v5h-1.564C109.52,122.667,109.52,119.961,109.52,117.152Z" transform="translate(-6.959 -7.418)" fill="#7c7c7c"/>
  <path id="Path_105" data-name="Path 105" d="M93.021,125.41h-1.6v-8.26c.3-.037.59-.056.871-.1.852-.15,1.274.225,1.536,1.039a24.328,24.328,0,0,0,1.629,3.839v-4.785h1.583v8.269c-.272.028-.487.037-.7.075-.927.169-1.414-.234-1.7-1.124a18.785,18.785,0,0,0-1.6-3.6C93.021,122.292,93.021,123.818,93.021,125.41Z" transform="translate(-5.809 -7.417)" fill="#7c7c7c"/>
  <path id="Path_106" data-name="Path 106" d="M32.381,121.261a19.383,19.383,0,0,1-.768,2.706,2.712,2.712,0,0,1-2.65,1.723,2.77,2.77,0,0,1-2.7-1.667,6.149,6.149,0,0,1,0-5.516,2.749,2.749,0,0,1,2.7-1.658,2.7,2.7,0,0,1,2.65,1.714A19.251,19.251,0,0,1,32.381,121.261Zm-5.029-.009a11.918,11.918,0,0,0,.609,2.088,1.041,1.041,0,0,0,1.985-.037,4.447,4.447,0,0,0-.019-4.092,1.4,1.4,0,0,0-1.021-.674,1.425,1.425,0,0,0-.993.721A11.757,11.757,0,0,0,27.352,121.251Z" transform="translate(-1.627 -7.406)" fill="#7c7c7c"/>
  <path id="Path_107" data-name="Path 107" d="M292.3,122.164v3.25H290.55v-8.306a32.461,32.461,0,0,1,3.315.019,2.441,2.441,0,0,1,1.526,3.905,8.816,8.816,0,0,1-.74.824c.225.543.468,1.124.693,1.7s.459,1.171.693,1.761c-1.742.365-1.8.337-2.36-1.18-.2-.524-.375-1.058-.609-1.564a2.907,2.907,0,0,0-.431-.534C292.526,122.08,292.414,122.127,292.3,122.164Zm.047-1.536c.637.094,1.245.1,1.517-.487a1.25,1.25,0,0,0-.084-1.124,4.058,4.058,0,0,0-1.433-.412Z" transform="translate(-18.462 -7.42)" fill="#7c7c7c"/>
  <path id="Path_108" data-name="Path 108" d="M6.454,121.749c.468,1.18.927,2.351,1.4,3.53-1.779.337-1.779.328-2.369-1.227-.262-.693-.571-1.377-.862-2.06-.14.028-.281.047-.421.075v3.287H2.38v-8.372a9.09,9.09,0,0,1,3.765.159,2.509,2.509,0,0,1,.993,3.849A8.473,8.473,0,0,1,6.454,121.749ZM4.2,120.672c.618-.243,1.152-.3,1.4-.6a1.109,1.109,0,0,0,.009-1.105c-.29-.309-.833-.375-1.414-.609Z" transform="translate(-0.151 -7.407)" fill="#7c7c7c"/>
  <path id="Path_109" data-name="Path 109" d="M189.493,122.167v3.268H187.77v-8.25a19.054,19.054,0,0,1,3.662.047c1.639.318,2.182,2.519,1.086,3.933a3.693,3.693,0,0,1-.7.543c.506,1.283.965,2.425,1.414,3.568-1.508.506-1.77.393-2.266-.946-.206-.562-.393-1.133-.637-1.676a2.976,2.976,0,0,0-.478-.609A2.279,2.279,0,0,0,189.493,122.167Zm.075-1.555c.674.131,1.264.094,1.555-.543a1.255,1.255,0,0,0-.075-1.021c-.356-.562-.927-.412-1.47-.272C189.568,119.433,189.568,120,189.568,120.613Z" transform="translate(-11.931 -7.423)" fill="#7c7c7c"/>
  <path id="Path_110" data-name="Path 110" d="M271.378,125.438h-1.8v-8.344a11.216,11.216,0,0,1,3.708.14,2.514,2.514,0,0,1,1.049,3.83,7.516,7.516,0,0,1-.712.768c.459,1.142.918,2.313,1.386,3.493-1.77.337-1.8.309-2.36-1.133a6.5,6.5,0,0,0-.946-2.144l-.337.056C271.378,123.181,271.378,124.258,271.378,125.438Zm0-4.532c.618-.328,1.152-.459,1.423-.805a1.133,1.133,0,0,0-.066-1.105c-.281-.272-.824-.272-1.358-.421C271.378,119.379,271.378,119.95,271.378,120.906Z" transform="translate(-17.13 -7.416)" fill="#7c7c7c"/>
  <path id="Path_111" data-name="Path 111" d="M234.348,123.918c.356-1.442.281-1.639-.768-1.976v-1.386h2.669c0,1.377.019,2.744-.019,4.111-.009.2-.262.44-.459.562a3.331,3.331,0,0,1-4.682-1.142,5.745,5.745,0,0,1,.019-5.694,2.989,2.989,0,0,1,5.038-.384c-.281.346-.581.712-.852,1.049-.14,0-.234.028-.281,0-1.47-.936-2.294-.665-2.594,1.068a7.5,7.5,0,0,0,.15,2.847C232.756,123.871,233.318,124.077,234.348,123.918Z" transform="translate(-14.637 -7.404)" fill="#7c7c7c"/>
  <path id="Path_112" data-name="Path 112" d="M122.855,118.009c-.356.4-.665.759-1,1.142a7.3,7.3,0,0,0-.7-.459,1.167,1.167,0,0,0-1.779.553,4.453,4.453,0,0,0-.019,4,1.254,1.254,0,0,0,1.658.721c.375-1.442.3-1.658-.74-2.07v-1.367h2.678c0,1.377.028,2.744-.028,4.111-.009.215-.309.5-.543.627a3.352,3.352,0,0,1-4.71-1.348,5.858,5.858,0,0,1,.047-5.4A3.024,3.024,0,0,1,122.855,118.009Z" transform="translate(-7.436 -7.404)" fill="#7c7c7c"/>
  <path id="Path_113" data-name="Path 113" d="M261.634,117.1h1.779v1.77c0,1.124-.019,2.247.009,3.362a2.468,2.468,0,0,0,.234,1.18,1.169,1.169,0,0,0,.862.534,1.128,1.128,0,0,0,.824-.6,4.43,4.43,0,0,0,.234-1.536c.028-1.526.009-3.053.009-4.673h1.6c.037.047.131.1.131.159-.019,2.051.047,4.1-.1,6.143a2.378,2.378,0,0,1-2.5,2.238c-1.629.066-2.622-.534-2.922-2A32.7,32.7,0,0,1,261.634,117.1Z" transform="translate(-16.619 -7.422)" fill="#7c7c7c"/>
  <path id="Path_114" data-name="Path 114" d="M282.124,118c-.356.4-.674.759-.983,1.1-1.892-1.011-2.781-.524-2.894,1.629a6.823,6.823,0,0,0,.272,2.3c.281.918.777,1.077,1.9.852v-1.695c-.309-.066-.618-.14-.974-.215v-1.433h2.706c0,1.377.028,2.716-.028,4.045a1.094,1.094,0,0,1-.59.712,3.329,3.329,0,0,1-4.617-1.386,5.9,5.9,0,0,1,.047-5.413C277.975,116.5,280.447,116.221,282.124,118Z" transform="translate(-17.556 -7.404)" fill="#7c7c7c"/>
  <path id="Path_115" data-name="Path 115" d="M89.582,125.4H87.915l-.5-1.489H85.48c-.15.5-.3.974-.468,1.5H83.27c.7-2.8,1.386-5.525,2.06-8.2a1.631,1.631,0,0,1,.384-.15c1.864-.14,1.854-.14,2.294,1.667.478,1.957.965,3.914,1.433,5.862C89.507,124.829,89.526,125.082,89.582,125.4Zm-3.006-5.843a1.726,1.726,0,0,1-.215-.037c-.2.862-.393,1.732-.618,2.688h1.367C86.922,121.27,86.754,120.418,86.576,119.557Z" transform="translate(-5.291 -7.416)" fill="#7c7c7c"/>
  <path id="Path_116" data-name="Path 116" d="M41.84,117.1h2.219c.674,2.706,1.358,5.431,2.079,8.316-.609.028-1.133.056-1.658.084-.253-.571-.346-1.292-.73-1.5-.45-.243-1.142-.056-1.723-.056-.73,1.667-.73,1.667-2.257,1.4C40.454,122.606,41.137,119.891,41.84,117.1Zm.412,5.113h1.358c-.215-1-.412-1.9-.609-2.8-.056,0-.112.009-.169.009C42.645,120.312,42.458,121.2,42.252,122.213Z" transform="translate(-2.527 -7.422)" fill="#7c7c7c"/>
  <path id="Path_117" data-name="Path 117" d="M33.35,117.162c.356-.047.609-.066.862-.1.749-.1,1.124.14,1.264.974a37.8,37.8,0,0,0,1.217,4.926c.4-1.9.815-3.811,1.236-5.8h1.854c-.421,1.714-.833,3.371-1.245,5.019-.2.8-.468,1.583-.59,2.388-.112.768-.487,1.011-1.2.936-.4-.037-.805-.009-1.3-.009C34.745,122.677,34.062,119.952,33.35,117.162Z" transform="translate(-2.119 -7.418)" fill="#7c7c7c"/>
  <path id="Path_118" data-name="Path 118" d="M70.63,117.089c1.068,0,2-.047,2.931.009a2.286,2.286,0,0,1,2.238,2.557,2.414,2.414,0,0,1-2.191,2.641c-.365.037-.73.047-1.2.075v3.015h-1.77C70.63,122.642,70.63,119.936,70.63,117.089Zm1.807,3.821c.6-.253,1.161-.328,1.367-.637a1.313,1.313,0,0,0-.037-1.236c-.225-.281-.805-.29-1.33-.44Z" transform="translate(-4.488 -7.42)" fill="#7c7c7c"/>
  <path id="Path_119" data-name="Path 119" d="M11.538,118.611v1.545c.7.056,1.386.1,2.135.169v1.452c-.693.037-1.348.075-2.1.122v1.864c.805.037,1.6.075,2.454.112v1.48H9.74V117h4.092v1.461Z" transform="translate(-0.619 -7.416)" fill="#7c7c7c"/>
  <path id="Path_120" data-name="Path 120" d="M288.456,117.13v1.489c-.749.047-1.442.084-2.229.131v1.4a10.968,10.968,0,0,1,2.051.478c.159.066.056.74.084,1.189-.768.047-1.423.094-2.154.14v1.835c.768.037,1.526.084,2.379.122v1.5H284.41V117.13Z" transform="translate(-18.072 -7.424)" fill="#7c7c7c"/>
  <path id="Path_121" data-name="Path 121" d="M259.695,117.8c-.346.431-.627.777-.936,1.171-.29-.14-.552-.272-.815-.375a.838.838,0,0,0-1.18.29.922.922,0,0,0,.337,1.274,6.11,6.11,0,0,0,.674.4,2.735,2.735,0,0,1,1.807,2.706,2.58,2.58,0,0,1-1.7,2.294,3.206,3.206,0,0,1-3.418-.983q.45-.59.927-1.208a3.861,3.861,0,0,0,1.152.571,1.261,1.261,0,0,0,1.03-.337,1.2,1.2,0,0,0-.122-1.086,3.08,3.08,0,0,0-1.1-.749,2.464,2.464,0,0,1-1.526-2.613,2.249,2.249,0,0,1,1.573-2.116A2.935,2.935,0,0,1,259.695,117.8Z" transform="translate(-16.169 -7.405)" fill="#7c7c7c"/>
  <path id="Path_122" data-name="Path 122" d="M296.83,117.115c.421-.028.646-.028.862-.056a1.131,1.131,0,0,1,1.451.974,20.39,20.39,0,0,0,.787,2.294c.272-.749.487-1.3.674-1.864.534-1.555.534-1.555,2.351-1.292-.918,2.688-2.772,5.122-1.985,8.241H299.19a36.6,36.6,0,0,0-.693-4.233A42.429,42.429,0,0,0,296.83,117.115Z" transform="translate(-18.861 -7.418)" fill="#7c7c7c"/>
  <path id="Path_123" data-name="Path 123" d="M102.419,125.429h-1.892V118.8c-.581-.084-1.011-.15-1.517-.215V117.16h4.935v1.414c-.459.066-.927.131-1.536.215C102.419,120.943,102.419,123.125,102.419,125.429Z" transform="translate(-6.291 -7.426)" fill="#7c7c7c"/>
  <path id="Path_124" data-name="Path 124" d="M185.571,118.612c-.5.047-.9.094-1.461.15v6.658c-.656.028-1.152.056-1.8.094v-6.7c-.581-.084-1.049-.159-1.583-.234V117.16h4.851C185.571,117.6,185.571,118.05,185.571,118.612Z" transform="translate(-11.484 -7.426)" fill="#7c7c7c"/>
  <path id="Path_125" data-name="Path 125" d="M79.331,123.789c.862.047,1.583.094,2.379.131v1.47H77.57V117.15h1.751C79.331,119.36,79.331,121.542,79.331,123.789Z" transform="translate(-4.929 -7.425)" fill="#7c7c7c"/>
  <path id="Path_126" data-name="Path 126" d="M47.849,117.12h1.732v6.668c.852.047,1.583.084,2.379.131v1.47H47.84C47.849,122.673,47.849,119.967,47.849,117.12Z" transform="translate(-3.04 -7.423)" fill="#7c7c7c"/>
  <path id="Path_127" data-name="Path 127" d="M107.557,125.427H105.89v-8.3h1.667Z" transform="translate(-6.729 -7.424)" fill="#7c7c7c"/>
  <path id="Path_128" data-name="Path 128" d="M195.22,117.12h1.695V125.4H195.22Z" transform="translate(-12.405 -7.423)" fill="#7c7c7c"/>
  <path id="Path_129" data-name="Path 129" d="M219.17,117.12h1.686V125.4H219.17Z" transform="translate(-13.927 -7.423)" fill="#7c7c7c"/>
  <path id="Path_130" data-name="Path 130" d="M61.266,123.4c-2.126-1.077-1.976-2.987.019-3.905C63.3,120.37,63.363,122.44,61.266,123.4Z" transform="translate(-3.795 -7.574)" fill="#7c7c7c"/>
  <path id="Path_131" data-name="Path 131" d="M245.613,123.376c-2.107-1.283-2.1-2.613.009-3.886C247.645,120.37,247.711,122.449,245.613,123.376Z" transform="translate(-15.507 -7.574)" fill="#7c7c7c"/>
  <path id="Path_132" data-name="Path 132" d="M261.562,8.5c0-1.068.047-2.032-.037-2.987-.019-.2-.506-.5-.787-.515-1.124-.056-2.247-.019-3.371-.028-.337,0-.684-.037-1.021-.056l-.028-.225c.768-.637,1.545-1.264,2.35-1.929-.712-.974-1.358-1.873-2.013-2.772h-.225c-1.939,1.583-3.868,3.175-5.815,4.738a1.22,1.22,0,0,1-.721.225c-4.261.019-8.531.009-12.792.009a1.957,1.957,0,0,1-1-.206c.777-.646,1.555-1.3,2.416-2.032C237.8,1.8,237.12.888,236.427-.02H236.2c-1.751,1.452-3.5,2.9-5.235,4.373a2.44,2.44,0,0,1-1.732.618c-3.072-.028-6.143-.009-9.215-.009h-1.339c-15.292.009-155.152-.009-158.046.028a3.05,3.05,0,0,1-2.144-.74C57.012,2.986,55.466,1.8,53.949.579a8.788,8.788,0,0,0-.777-.487c-.721.908-1.386,1.742-2.1,2.641.89.73,1.686,1.386,2.528,2.07-.215.094-.281.15-.346.15q-6.742.014-13.476.009a1.215,1.215,0,0,1-.73-.206C37.1,3.183,35.183,1.591,33.254,0h-.225c-.684.908-1.377,1.817-2.07,2.744.862.73,1.629,1.386,2.4,2.041l-.112.281H28.15v3.5H43.4a2.035,2.035,0,0,0,.066.225c-.8.656-1.592,1.3-2.463,2.023.759.936,1.452,1.8,2.182,2.706,1.845-1.489,3.605-2.875,5.338-4.3a2.835,2.835,0,0,1,1.929-.684c6.256.028,155.8.019,168.768.019h.9c5.881,0,11.762.056,17.633-.037a5.635,5.635,0,0,1,4.448,1.545,38.411,38.411,0,0,0,3.306,2.7c.309.243.637.459,1.011.721.73-.918,1.4-1.761,2.116-2.669-.88-.73-1.695-1.4-2.519-2.079.028-.066.056-.14.084-.206C251.27,8.5,256.336,8.5,261.562,8.5Z" transform="translate(-1.789 0.02)" fill="#7c7c7c"/>
</svg>
