<?xml version="1.0" standalone="no"?>
<!DOCTYPE svg PUBLIC "-//W3C//DTD SVG 20010904//EN"
 "http://www.w3.org/TR/2001/REC-SVG-20010904/DTD/svg10.dtd">
<svg version="1.0" xmlns="http://www.w3.org/2000/svg"
 width="260.000000pt" height="260.000000pt" viewBox="0 0 260.000000 260.000000"
 preserveAspectRatio="xMidYMid meet">
<metadata>
Created by potrace 1.11, written by Peter Selinger 2001-2013
</metadata>
<g transform="translate(0.000000,260.000000) scale(0.100000,-0.100000)"
fill="#000000" stroke="none">
<path d="M1005 2110 c-299 -46 -493 -136 -671 -315 -160 -160 -229 -308 -229
-490 0 -92 16 -184 37 -211 4 -6 11 -31 14 -55 5 -38 -2 -65 -51 -188 -51
-128 -111 -328 -102 -338 10 -9 157 -43 190 -43 32 0 37 3 37 23 0 62 90 337
111 337 5 0 28 -15 52 -33 52 -39 184 -109 249 -131 79 -26 146 -36 248 -36
144 -1 308 43 481 130 54 26 225 125 381 218 157 94 313 185 348 202 96 49
276 115 360 134 41 9 90 21 107 27 l33 11 -70 102 c-178 261 -488 495 -791
597 -51 17 -102 33 -113 35 -220 45 -428 53 -621 24z m440 -219 c83 -12 224
-52 304 -86 89 -37 258 -132 249 -140 -2 -2 -39 5 -83 16 -44 11 -112 24 -152
30 -39 5 -82 12 -95 15 -53 13 -395 12 -473 -1 -303 -50 -562 -180 -788 -395
-67 -63 -76 -69 -78 -43 -14 177 147 393 375 502 80 38 190 76 250 86 17 3 38
8 46 10 8 2 40 7 70 10 30 4 56 8 58 9 6 7 255 -4 317 -13z m305 -407 c109
-23 260 -73 260 -87 0 -12 -51 -43 -437 -268 -325 -189 -423 -234 -572 -264
-177 -36 -364 15 -505 138 l-48 43 115 117 c63 64 119 117 124 117 6 0 92 -65
192 -145 100 -80 186 -145 190 -145 5 0 38 37 75 83 l66 82 -33 30 c-35 32
-91 79 -201 169 l-68 56 27 10 c82 31 205 62 226 57 13 -4 80 -52 149 -107 69
-55 128 -100 132 -100 6 0 131 154 136 169 2 5 -13 19 -33 31 -19 12 -35 26
-35 32 0 13 138 2 240 -18z"/>
</g>
</svg>
